ply
format ascii 1.0
comment Created by Blender 2.76 (sub 0) - www.blender.org, source file: 'Tree9.blend'
element vertex 243
property float x
property float y
property float z
property float nx
property float ny
property float nz
property float s
property float t
property uchar red
property uchar green
property uchar blue
element face 90
property list uchar uint vertex_indices
end_header
0.000000 0.348932 0.417704 -0.154180 0.742149 0.652211 0.777952 0.983783 255 255 255
-0.178303 0.003211 2.461601 -0.025025 0.998749 0.043031 0.791949 0.746284 255 255 255
0.051025 -0.163406 2.461601 0.958373 0.279824 0.056276 0.832936 0.747047 255 255 255
0.331854 0.107826 0.417704 0.701468 0.366405 0.611255 0.837263 0.984887 255 255 255
0.331854 0.107826 0.417704 0.701468 0.366405 0.611255 0.713503 0.000000 255 255 255
0.051025 -0.163406 2.461601 0.958373 0.279824 0.056276 0.674095 0.232740 255 255 255
-0.036571 -0.432998 2.461601 0.554399 -0.831843 0.024842 0.633062 0.233790 255 255 255
0.205097 -0.282292 0.417704 0.464400 -0.877041 0.122806 0.654127 0.001519 255 255 255
0.205097 -0.282292 0.417704 0.464400 -0.877041 0.122806 0.050866 0.093740 255 255 255
-0.036571 -0.432998 2.461601 0.554399 -0.831843 0.024842 0.061923 0.310239 255 255 255
-0.320036 -0.432998 2.461601 -0.585406 -0.810724 -0.001587 0.026772 0.321185 255 255 255
-0.205097 -0.282292 0.417704 -0.185492 -0.659841 0.728111 0.000000 0.109580 255 255 255
-0.125236 0.121243 3.880982 0.006592 0.999817 -0.017548 0.794957 0.585383 255 255 255
0.104093 -0.045374 3.880982 0.947203 0.320505 -0.007508 0.835944 0.586146 255 255 255
-0.178303 0.003211 2.461601 -0.025025 0.998749 0.043031 0.592953 0.740791 255 255 255
0.000000 0.348932 0.417704 -0.154180 0.742149 0.652211 0.633062 0.972120 255 255 255
-0.331854 0.107826 0.417704 -0.803125 0.045137 0.594073 0.573715 0.970187 255 255 255
-0.407632 -0.163406 2.461601 -0.963286 0.268349 0.005768 0.551941 0.739456 255 255 255
-0.205097 -0.282292 0.417704 -0.185492 -0.659841 0.728111 0.718675 0.965613 255 255 255
-0.320036 -0.432998 2.461601 -0.585406 -0.810724 -0.001587 0.713504 0.730996 255 255 255
-0.407632 -0.163406 2.461601 -0.963286 0.268349 0.005768 0.754467 0.732313 255 255 255
-0.331854 0.107826 0.417704 -0.803125 0.045137 0.594073 0.777952 0.967518 255 255 255
-0.125236 0.121243 3.880982 0.006592 0.999817 -0.017548 0.617125 0.578982 255 255 255
-0.354564 -0.045374 3.880982 -0.945250 0.325175 0.026887 0.576113 0.577646 255 255 255
-0.279132 -0.069883 5.550924 -0.940794 0.338664 -0.014008 0.591527 0.389000 255 255 255
-0.125235 0.041930 5.550924 0.025330 0.994842 0.098025 0.619049 0.389896 255 255 255
0.016497 -0.314966 3.880982 0.599536 -0.799036 0.045106 0.112689 0.458913 255 255 255
-0.266968 -0.314966 3.880982 -0.589404 -0.804895 0.068636 0.077538 0.469859 255 255 255
-0.266968 -0.314966 3.880982 -0.589404 -0.804895 0.068636 0.732835 0.572616 255 255 255
-0.354564 -0.045374 3.880982 -0.945250 0.325175 0.026887 0.773799 0.573933 255 255 255
0.104093 -0.045374 3.880982 0.947203 0.320505 -0.007508 0.699668 0.394538 255 255 255
0.016497 -0.314966 3.880982 0.599536 -0.799036 0.045106 0.658635 0.395587 255 255 255
-0.279132 -0.069883 5.550924 -0.940794 0.338664 -0.014008 0.773849 0.386120 255 255 255
-0.220349 -0.250799 5.550924 -0.577380 -0.814386 -0.057924 0.746359 0.385237 255 255 255
-0.471907 -0.425201 7.339683 -0.599902 -0.799860 0.017823 0.744138 0.176921 255 255 255
-0.513362 -0.297616 7.339683 -0.966399 0.256569 0.014039 0.763524 0.177544 255 255 255
-0.030122 -0.250800 5.550924 0.615314 -0.787133 0.041902 0.153628 0.635743 255 255 255
-0.220349 -0.250799 5.550924 -0.577380 -0.814386 -0.057924 0.130039 0.643089 255 255 255
-0.125235 0.041930 5.550924 0.025330 0.994842 0.098025 0.808094 0.394007 255 255 255
0.028661 -0.069883 5.550924 0.940458 0.316050 0.124790 0.835600 0.394519 255 255 255
0.028661 -0.069883 5.550924 0.940458 0.316050 0.124790 0.701289 0.584754 255 255 255
-0.030122 -0.250800 5.550924 0.615314 -0.787133 0.041902 0.673753 0.585459 255 255 255
-0.404831 -0.218763 7.339683 -0.055757 0.998016 0.028901 0.573543 0.185467 255 255 255
-0.513362 -0.297616 7.339683 -0.966399 0.256569 0.014039 0.554133 0.184835 255 255 255
-0.314036 -0.160784 8.608189 -0.914884 0.288247 0.282540 0.595883 0.041865 255 255 255
-0.243658 -0.109651 8.608189 -0.058840 0.996490 -0.059236 0.608469 0.042275 255 255 255
-0.296300 -0.297616 7.339683 0.958281 0.282144 0.045076 0.664771 0.787647 255 255 255
-0.337755 -0.425201 7.339683 0.531541 -0.846309 0.034791 0.645353 0.788144 255 255 255
-0.337755 -0.425201 7.339683 0.531541 -0.846309 0.034791 0.148388 0.827620 255 255 255
-0.471907 -0.425201 7.339683 -0.599902 -0.799860 0.017823 0.131753 0.832800 255 255 255
-0.404831 -0.218763 7.339683 -0.055757 0.998016 0.028901 0.802034 0.185405 255 255 255
-0.296300 -0.297616 7.339683 0.958281 0.282144 0.045076 0.821432 0.185766 255 255 255
-0.173279 -0.160784 8.608189 0.934690 0.283303 -0.214637 0.830837 0.042830 255 255 255
-0.243658 -0.109651 8.608189 -0.058840 0.996490 -0.059236 0.818258 0.042596 255 255 255
-0.075989 -0.071977 8.995720 -0.013489 0.995758 -0.090945 0.837263 0.000000 255 255 255
-0.075989 -0.071977 8.995720 0.913083 0.282540 -0.293985 0.837263 0.000000 255 255 255
-0.200161 -0.243519 8.608189 0.549608 -0.823847 0.138401 0.210309 0.959354 255 255 255
-0.287154 -0.243519 8.608189 -0.553545 -0.748741 0.364544 0.199522 0.962714 255 255 255
-0.287154 -0.243519 8.608189 -0.553545 -0.748741 0.364544 0.764372 0.038482 255 255 255
-0.314036 -0.160784 8.608189 -0.914884 0.288247 0.282540 0.776944 0.038886 255 255 255
-0.173279 -0.160784 8.608189 0.934690 0.283303 -0.214637 0.695174 0.932726 255 255 255
-0.200161 -0.243519 8.608189 0.549608 -0.823847 0.138401 0.682582 0.933048 255 255 255
-0.075989 -0.071977 8.995720 -0.465865 -0.686819 0.557878 0.777952 0.000000 255 255 255
-0.075989 -0.071977 8.995720 -0.836665 0.327677 0.438826 0.777952 0.000000 255 255 255
-0.075989 -0.071977 8.995720 0.913083 0.282540 -0.293985 0.713504 0.977273 255 255 255
-0.075989 -0.071977 8.995720 0.602496 -0.783166 0.153600 0.713504 0.977273 255 255 255
-0.075989 -0.071977 8.995720 -0.836665 0.327677 0.438826 0.633062 0.000000 255 255 255
-0.075989 -0.071977 8.995720 -0.013489 0.995758 -0.090945 0.633062 0.000000 255 255 255
-0.075989 -0.071977 8.995720 0.602496 -0.783166 0.153600 0.247590 1.000000 255 255 255
-0.075989 -0.071977 8.995720 -0.465865 -0.686819 0.557878 0.247590 1.000000 255 255 255
-0.270465 -0.725894 7.452985 0.789788 -0.328929 -0.517685 0.977458 0.128204 255 255 255
-0.358603 -0.632920 7.574067 -0.135594 0.572558 0.808557 0.952732 0.126485 255 255 255
0.185459 -1.375707 8.271277 -0.032655 0.671163 0.740562 0.985112 0.000000 255 255 255
0.185459 -1.375707 8.271277 0.804834 -0.156255 -0.572497 0.985112 0.000000 255 255 255
-0.358603 -0.268117 7.308597 0.000000 0.943022 0.332713 0.956622 0.166889 255 255 255
-0.257049 -0.375245 7.169084 0.726859 0.170843 -0.665151 0.985112 0.168870 255 255 255
-0.460158 -0.375245 7.169084 -0.726859 0.170843 -0.665151 0.866678 0.682807 255 255 255
-0.446742 -0.725894 7.452985 -0.840266 -0.501206 -0.206671 0.863301 0.719068 255 255 255
-0.358603 -0.632920 7.574067 -0.135594 0.572558 0.808557 0.837771 0.719068 255 255 255
-0.358603 -0.268117 7.308597 0.000000 0.943022 0.332713 0.837263 0.682807 255 255 255
-0.257049 -0.375245 7.169084 0.726859 0.170843 -0.665151 0.497264 0.627254 255 255 255
-0.270465 -0.725894 7.452985 0.789788 -0.328929 -0.517685 0.475427 0.664657 255 255 255
-0.446742 -0.725894 7.452985 -0.840266 -0.501206 -0.206671 0.451433 0.657882 255 255 255
-0.460158 -0.375245 7.169084 -0.726859 0.170843 -0.665151 0.469617 0.619448 255 255 255
-0.358603 -0.632920 7.574067 -0.135594 0.572558 0.808557 0.983955 0.260870 255 255 255
-0.446742 -0.725894 7.452985 -0.840266 -0.501206 -0.206671 1.000000 0.257926 255 255 255
0.185459 -1.375707 8.271277 -0.704245 -0.709647 -0.019440 1.000000 0.386472 255 255 255
0.185459 -1.375707 8.271277 -0.032655 0.671163 0.740562 1.000000 0.386472 255 255 255
0.185459 -1.375707 8.271277 0.804834 -0.156255 -0.572497 0.497264 0.752438 255 255 255
0.185459 -1.375707 8.271277 -0.704245 -0.709647 -0.019440 0.497264 0.752438 255 255 255
-0.257049 -0.375245 7.169084 0.726859 0.170843 -0.665151 0.851603 0.668576 255 255 255
-0.205097 -0.282292 0.417704 -0.185492 -0.659841 0.728111 0.294064 0.134210 255 255 255
-0.331854 0.107826 0.417704 -0.803125 0.045137 0.594073 0.247590 0.104891 255 255 255
-0.606470 -0.289219 0.329162 -0.659108 0.595325 0.459487 0.315848 0.091221 255 255 255
-0.551469 -0.458498 0.329162 0.088565 -0.310190 0.946501 0.336014 0.103942 255 255 255
0.331854 -0.107826 0.104880 0.063082 -0.703421 -0.707938 0.070976 0.061799 255 255 255
0.999903 -0.061059 0.059391 -0.028413 -0.526017 -0.849971 0.155964 0.032728 255 255 255
0.928124 -0.159854 0.236534 0.272683 -0.858272 0.434675 0.144576 0.050815 255 255 255
-0.331854 -0.107826 0.104880 -0.595233 0.003479 -0.803522 0.983955 0.449429 255 255 255
-0.331854 0.107826 0.417704 -0.803125 0.045137 0.594073 0.945288 0.422221 255 255 255
-1.140198 0.764881 0.335839 -0.429121 -0.295114 0.853633 0.961062 0.319042 255 255 255
-1.140198 0.662101 0.186746 -0.631489 -0.597736 -0.493851 0.979491 0.332010 255 255 255
0.000000 0.348932 0.417704 -0.154180 0.742149 0.652211 0.349206 0.634694 255 255 255
0.331854 0.107826 0.417704 0.701468 0.366405 0.611255 0.405424 0.619448 255 255 255
0.433780 0.857009 0.343140 0.834040 -0.000488 0.551683 0.387433 0.704688 255 255 255
0.260126 0.983176 0.343140 -0.272988 0.646718 0.712149 0.358015 0.712667 255 255 255
-0.000000 -0.348932 0.104880 0.613880 -0.597888 -0.515397 0.012831 0.067191 255 255 255
1.717641 -0.000000 -0.007110 -0.057833 -0.885250 -0.461440 0.247590 0.000000 255 255 255
1.717641 -0.000000 -0.007110 0.190588 -0.545061 0.816431 0.247590 0.000000 255 255 255
0.331854 0.107826 0.417704 0.701468 0.366405 0.611255 0.899905 0.021477 255 255 255
0.205097 -0.282292 0.417704 0.464400 -0.877041 0.122806 0.952732 0.000000 255 255 255
0.928124 -0.159854 0.236534 0.272683 -0.858272 0.434675 0.952732 0.083524 255 255 255
0.999903 0.061059 0.236534 0.293252 0.477126 0.828425 0.922818 0.095686 255 255 255
0.331854 -0.107826 0.104880 0.063082 -0.703421 -0.707938 0.892609 0.279708 255 255 255
0.205097 0.282292 0.104880 0.468062 0.250954 -0.847285 0.945288 0.257926 255 255 255
0.928124 0.159854 0.059391 0.113254 0.830409 -0.545488 0.945288 0.342269 255 255 255
0.999903 -0.061059 0.059391 -0.028413 -0.526017 -0.849971 0.915457 0.354604 255 255 255
0.205097 0.282292 0.104880 0.468062 0.250954 -0.847285 0.296793 0.784045 255 255 255
0.331854 0.107826 0.417704 0.701468 0.366405 0.611255 0.247590 0.765326 255 255 255
0.999903 0.061059 0.236534 0.293252 0.477126 0.828425 0.268030 0.695629 255 255 255
0.928124 0.159854 0.059391 0.113254 0.830409 -0.545488 0.295892 0.706230 255 255 255
1.717641 -0.000000 -0.007110 0.207465 0.309946 0.927824 0.000000 0.000000 255 255 255
1.717641 -0.000000 -0.007110 0.190588 -0.545061 0.816431 0.000000 0.000000 255 255 255
1.717641 -0.000000 -0.007110 -0.057833 -0.885250 -0.461440 0.000000 0.000000 255 255 255
1.717641 -0.000000 -0.007110 0.129398 0.893643 0.429670 0.000000 0.000000 255 255 255
1.717641 -0.000000 -0.007110 0.190588 -0.545061 0.816431 0.949187 0.175050 255 255 255
1.717641 -0.000000 -0.007110 0.207465 0.309946 0.927824 0.949187 0.175050 255 255 255
1.717641 -0.000000 -0.007110 0.207465 0.309946 0.927824 0.296793 0.619448 255 255 255
1.717641 -0.000000 -0.007110 0.129398 0.893643 0.429670 0.296793 0.619448 255 255 255
1.717641 -0.000000 -0.007110 0.129398 0.893643 0.429670 0.941640 0.434995 255 255 255
1.717641 -0.000000 -0.007110 -0.057833 -0.885250 -0.461440 0.941640 0.434995 255 255 255
0.152802 0.948304 0.179444 -0.675222 0.584918 -0.449324 0.429034 0.683714 255 255 255
0.260126 0.983176 0.343140 -0.272988 0.646718 0.712149 0.405424 0.672559 255 255 255
0.668205 1.180423 0.008944 -0.006684 0.617695 0.786370 0.451433 0.619448 255 255 255
0.668205 1.180423 0.008944 -0.688009 0.570360 0.448622 0.451433 0.619448 255 255 255
0.331854 0.107826 0.417704 0.701468 0.366405 0.611255 0.542266 0.752949 255 255 255
0.205097 0.282292 0.104880 0.468062 0.250954 -0.847285 0.497264 0.733824 255 255 255
0.367450 0.948304 0.179444 0.283761 -0.499161 -0.818690 0.518718 0.656684 255 255 255
0.433780 0.857009 0.343140 0.834040 -0.000488 0.551683 0.542266 0.666692 255 255 255
0.205097 0.282292 0.104880 0.468062 0.250954 -0.847285 0.296793 0.641384 255 255 255
-0.205097 0.282292 0.104880 -0.039888 0.520402 -0.852962 0.349206 0.619448 255 255 255
0.152802 0.948304 0.179444 -0.675222 0.584918 -0.449324 0.349206 0.705646 255 255 255
0.367450 0.948304 0.179444 0.283761 -0.499161 -0.818690 0.321779 0.717125 255 255 255
-0.205097 0.282292 0.104880 -0.039888 0.520402 -0.852962 0.451433 0.762002 255 255 255
0.000000 0.348932 0.417704 -0.154180 0.742149 0.652211 0.406314 0.740685 255 255 255
0.668205 1.180423 0.008944 -0.006684 0.617695 0.786370 0.000000 0.000000 255 255 255
0.668205 1.180423 0.008944 0.472945 -0.185949 0.861232 0.000000 0.000000 255 255 255
0.668205 1.180423 0.008944 0.199805 -0.947966 -0.247780 0.000000 0.000000 255 255 255
0.668205 1.180423 0.008944 -0.688009 0.570360 0.448622 0.000000 0.000000 255 255 255
0.668205 1.180423 0.008944 -0.688009 0.570360 0.448622 0.297853 0.757807 255 255 255
0.668205 1.180423 0.008944 0.199805 -0.947966 -0.247780 0.297853 0.757807 255 255 255
0.668205 1.180423 0.008944 0.199805 -0.947966 -0.247780 0.502373 0.619448 255 255 255
0.668205 1.180423 0.008944 0.472945 -0.185949 0.861232 0.502373 0.619448 255 255 255
0.668205 1.180423 0.008944 0.472945 -0.185949 0.861232 0.405424 0.746543 255 255 255
0.668205 1.180423 0.008944 -0.006684 0.617695 0.786370 0.405424 0.746543 255 255 255
-0.982036 0.879792 0.335839 0.338755 0.792749 0.506699 0.985818 0.540407 255 255 255
-1.079785 0.848032 0.186746 0.247047 0.462630 -0.851405 0.966037 0.531896 255 255 255
-1.610602 1.170171 0.195562 0.442244 0.768822 -0.461776 0.973465 0.460877 255 255 255
-1.610602 1.170171 0.195562 0.177587 0.521226 0.834712 0.973465 0.460877 255 255 255
-0.331854 0.107826 0.417704 -0.803125 0.045137 0.594073 0.890853 0.481345 255 255 255
0.000000 0.348932 0.417704 -0.154180 0.742149 0.652211 0.944313 0.460877 255 255 255
-0.982036 0.879792 0.335839 0.338755 0.792749 0.506699 0.944313 0.589081 255 255 255
-1.140198 0.764881 0.335839 -0.429121 -0.295114 0.853633 0.918834 0.598836 255 255 255
-0.205097 0.282292 0.104880 -0.039888 0.520402 -0.852962 0.837263 0.481106 255 255 255
-0.331854 -0.107826 0.104880 -0.595233 0.003479 -0.803522 0.890853 0.460877 255 255 255
-1.140198 0.662101 0.186746 -0.631489 -0.597736 -0.493851 0.890853 0.589273 255 255 255
-1.079785 0.848032 0.186746 0.247047 0.462630 -0.851405 0.865312 0.598914 255 255 255
0.000000 0.348932 0.417704 -0.154180 0.742149 0.652211 0.985818 0.668459 255 255 255
-0.205097 0.282292 0.104880 -0.039888 0.520402 -0.852962 0.944313 0.650601 255 255 255
-1.610602 1.170171 0.195562 -0.309091 -0.169774 0.935728 0.000000 0.000000 255 255 255
-1.610602 1.170171 0.195562 0.177587 0.521226 0.834712 0.000000 0.000000 255 255 255
-1.610602 1.170171 0.195562 0.442244 0.768822 -0.461776 0.000000 0.000000 255 255 255
-1.610602 1.170171 0.195562 -0.669546 -0.610004 0.423719 0.000000 0.000000 255 255 255
-1.610602 1.170171 0.195562 -0.669546 -0.610004 0.423719 0.884171 0.668576 255 255 255
-1.610602 1.170171 0.195562 0.442244 0.768822 -0.461776 0.884171 0.668576 255 255 255
-1.610602 1.170171 0.195562 -0.309091 -0.169774 0.935728 0.983955 0.257926 255 255 255
-1.610602 1.170171 0.195562 -0.669546 -0.610004 0.423719 0.983955 0.257926 255 255 255
-1.610602 1.170171 0.195562 0.177587 0.521226 0.834712 0.937488 0.668515 255 255 255
-1.610602 1.170171 0.195562 -0.309091 -0.169774 0.935728 0.937488 0.668515 255 255 255
-0.606470 -0.289219 0.329162 -0.659108 0.595325 0.459487 0.869647 0.052099 255 255 255
-0.606470 -0.382794 0.193423 -0.499619 0.176916 -0.847957 0.890955 0.057817 255 255 255
-1.126450 -0.719877 0.443491 -0.383312 0.370464 -0.846034 0.858571 0.130084 255 255 255
-1.126450 -0.626302 0.579230 -0.337046 0.728751 0.596057 0.837263 0.124366 255 255 255
-0.331854 0.107826 0.417704 -0.803125 0.045137 0.594073 0.850799 0.000000 255 255 255
-0.331854 -0.107826 0.104880 -0.595233 0.003479 -0.803522 0.899905 0.013179 255 255 255
-0.331854 -0.107826 0.104880 -0.595233 0.003479 -0.803522 0.247590 0.505272 255 255 255
-0.000000 -0.348932 0.104880 0.613880 -0.597888 -0.515397 0.263644 0.459978 255 255 255
-0.462474 -0.487414 0.193423 -0.314554 -0.353465 -0.880947 0.306267 0.504669 255 255 255
-0.606470 -0.382794 0.193423 -0.499619 0.176916 -0.847957 0.299301 0.524323 255 255 255
0.288067 -1.557602 0.163798 0.781701 0.229408 -0.579913 0.413599 0.381006 255 255 255
-0.000200 -1.643920 0.218988 -0.563036 -0.308390 -0.766717 0.440166 0.408862 255 255 255
-0.982454 -0.824496 0.443491 0.448531 -0.826258 -0.340648 0.859475 0.391642 255 255 255
-1.071449 -0.795580 0.579230 0.346019 -0.365062 0.864254 0.837263 0.384719 255 255 255
-1.535931 -1.083446 0.540810 0.024262 -0.478195 0.877895 0.841847 0.322124 255 255 255
-1.461839 -1.107520 0.427800 0.557421 -0.663564 -0.498917 0.860340 0.327888 255 255 255
-1.126450 -0.626302 0.579230 -0.337046 0.728751 0.596057 0.386440 0.049202 255 255 255
-1.071449 -0.795580 0.579230 0.346019 -0.365062 0.864254 0.406606 0.061924 255 255 255
-0.462474 -0.487414 0.193423 -0.314554 -0.353465 -0.880947 0.892609 0.460877 255 255 255
-0.551469 -0.458498 0.329162 0.088565 -0.310190 0.946501 0.870397 0.453954 255 255 255
-0.982454 -0.824496 0.443491 0.448531 -0.826258 -0.340648 0.379836 0.548636 255 255 255
-1.126450 -0.719877 0.443491 -0.383312 0.370464 -0.846034 0.372870 0.568290 255 255 255
-1.581723 -0.942513 0.540810 -0.671255 0.568651 0.475417 0.846225 0.187650 255 255 255
-1.581723 -1.020419 0.427800 -0.347850 0.503586 -0.790796 0.863964 0.192411 255 255 255
-1.920093 -1.535636 0.233581 -0.478317 0.804804 -0.351360 0.899905 0.257926 255 255 255
-1.920093 -1.535636 0.233581 -0.615192 0.232032 0.753441 0.899905 0.257926 255 255 255
-1.461839 -1.107520 0.427800 0.557421 -0.663564 -0.498917 0.442207 0.588668 255 255 255
-1.581723 -1.020419 0.427800 -0.347850 0.503586 -0.790796 0.436408 0.605031 255 255 255
-1.581723 -0.942513 0.540810 -0.671255 0.568651 0.475417 0.452599 0.012924 255 255 255
-1.535931 -1.083446 0.540810 0.024262 -0.478195 0.877895 0.469388 0.023515 255 255 255
-1.920093 -1.535636 0.233581 -0.003662 -0.358745 0.933409 0.000000 0.000000 255 255 255
-1.920093 -1.535636 0.233581 -0.615192 0.232032 0.753441 0.000000 0.000000 255 255 255
-1.920093 -1.535636 0.233581 -0.478317 0.804804 -0.351360 0.000000 0.000000 255 255 255
-1.920093 -1.535636 0.233581 0.678884 -0.503708 0.534165 0.000000 0.000000 255 255 255
-1.920093 -1.535636 0.233581 -0.615192 0.232032 0.753441 0.551941 0.000000 255 255 255
-1.920093 -1.535636 0.233581 -0.003662 -0.358745 0.933409 0.551941 0.000000 255 255 255
-1.920093 -1.535636 0.233581 -0.003662 -0.358745 0.933409 0.892609 0.257926 255 255 255
-1.920093 -1.535636 0.233581 0.678884 -0.503708 0.534165 0.892609 0.257926 255 255 255
-1.920093 -1.535636 0.233581 0.678884 -0.503708 0.534165 0.521982 0.619448 255 255 255
-1.920093 -1.535636 0.233581 -0.478317 0.804804 -0.351360 0.521982 0.619448 255 255 255
0.608766 -2.476301 0.137573 0.760155 0.281930 0.585345 0.521982 0.309589 255 255 255
0.608766 -2.476301 0.137573 -0.815546 -0.480148 -0.322977 0.521982 0.309589 255 255 255
-0.055672 -1.625896 0.303596 -0.771416 -0.470870 0.427961 0.469331 0.204167 255 255 255
0.160227 -1.516064 0.358786 0.388592 0.023865 0.921079 0.443183 0.223033 255 255 255
-0.000000 -0.348932 0.104880 0.613880 -0.597888 -0.515397 0.986494 0.791822 255 255 255
-0.205097 -0.282292 0.417704 -0.185492 -0.659841 0.728111 0.944313 0.791822 255 255 255
0.160227 -1.516064 0.358786 0.388592 0.023865 0.921079 0.945438 0.668458 255 255 255
0.288067 -1.557602 0.163798 0.781701 0.229408 -0.579913 0.971730 0.668459 255 255 255
-0.551469 -0.458498 0.329162 0.088565 -0.310190 0.946501 0.525737 0.309589 255 255 255
-0.462474 -0.487414 0.193423 -0.314554 -0.353465 -0.880947 0.546484 0.317142 255 255 255
-0.000200 -1.643920 0.218988 -0.563036 -0.308390 -0.766717 0.534913 0.459841 255 255 255
-0.055672 -1.625896 0.303596 -0.771416 -0.470870 0.427961 0.521982 0.455133 255 255 255
0.608766 -2.476301 0.137573 0.760155 0.281930 0.585345 0.000000 0.000000 255 255 255
0.608766 -2.476301 0.137573 0.283761 0.002106 0.958861 0.000000 0.000000 255 255 255
0.608766 -2.476301 0.137573 -0.443342 -0.402997 0.800623 0.000000 0.000000 255 255 255
0.608766 -2.476301 0.137573 -0.815546 -0.480148 -0.322977 0.000000 0.000000 255 255 255
0.608766 -2.476301 0.137573 -0.815546 -0.480148 -0.322977 0.546484 0.574770 255 255 255
0.608766 -2.476301 0.137573 -0.443342 -0.402997 0.800623 0.546484 0.574770 255 255 255
0.608766 -2.476301 0.137573 -0.443342 -0.402997 0.800623 0.551941 0.309589 255 255 255
0.608766 -2.476301 0.137573 0.283761 0.002106 0.958861 0.551941 0.309589 255 255 255
0.288067 -1.557602 0.163798 0.781701 0.229408 -0.579913 0.890853 0.687359 255 255 255
0.160227 -1.516064 0.358786 0.388592 0.023865 0.921079 0.915469 0.668515 255 255 255
0.608766 -2.476301 0.137573 0.283761 0.002106 0.958861 0.915469 0.773311 255 255 255
0.608766 -2.476301 0.137573 0.760155 0.281930 0.585345 0.915469 0.773311 255 255 255
4 0 1 2 3
4 4 5 6 7
4 8 9 10 11
4 2 1 12 13
4 14 15 16 17
4 18 19 20 21
4 22 23 24 25
4 10 9 26 27
4 20 19 28 29
4 6 5 30 31
4 14 17 23 22
4 32 33 34 35
4 27 26 36 37
4 13 12 38 39
4 29 28 33 32
4 31 30 40 41
4 42 43 44 45
4 41 40 46 47
4 25 24 43 42
4 37 36 48 49
4 39 38 50 51
4 52 53 54 55
4 49 48 56 57
4 51 50 53 52
4 35 34 58 59
4 47 46 60 61
4 59 58 62 63
4 61 60 64 65
4 45 44 66 67
4 57 56 68 69
4 70 71 72 73
4 74 71 70 75
4 76 77 78 79
4 80 81 82 83
4 84 85 86 87
4 82 81 88 89
3 79 90 76
4 91 92 93 94
4 8 95 96 97
4 98 99 100 101
4 102 103 104 105
4 8 11 106 95
4 97 96 107 108
4 109 110 111 112
4 113 114 115 116
4 117 118 119 120
4 121 122 123 124
4 112 111 125 126
4 120 119 127 128
4 116 115 129 130
4 131 132 133 134
4 135 136 137 138
4 139 140 141 142
4 143 144 132 131
4 145 146 147 148
4 142 141 149 150
4 138 137 151 152
4 105 104 153 154
4 155 156 157 158
4 159 160 161 162
4 163 164 165 166
4 167 168 156 155
4 169 170 171 172
4 166 165 173 174
4 101 100 175 176
4 162 161 177 178
4 179 180 181 182
4 183 184 180 179
4 185 186 187 188
4 187 186 189 190
4 191 192 193 194
4 94 93 195 196
4 197 198 192 191
4 188 187 199 200
4 201 202 203 204
4 200 199 205 206
4 182 181 202 201
4 196 195 207 208
4 209 210 211 212
4 208 207 213 214
4 194 193 215 216
4 206 205 217 218
4 190 189 219 220
4 91 94 221 222
4 223 224 225 226
4 227 228 229 230
4 231 232 233 234
4 230 229 235 236
4 222 221 237 238
4 239 240 241 242
